REM DIRINDEX 1\2,1\3\4,1\3\5,1\3\6,1\7,1\8,1\9,1\10,1\11,1\12\13,1\12\14,1\12\15,1\12\16,1\17
REM DIRNAME folder01,folder02,folder03,folder04,folder05,folder06,folder07,folder08,folder09,folder10,folder11,folder12,folder13,folder14,folder15,folder16,folder17
TITLE ""
FILE "DB3000_5th_MK_03.mp3" MP3
  TRACK 01 AUDIO
    TITLE "15:cjc025_7029"
    INDEX 01 00:00:00
  TRACK 02 AUDIO
    TITLE "15:cjc025_7030"
    INDEX 01 00:01:05
  TRACK 03 AUDIO
    TITLE "15:cjc025_7031"
    INDEX 01 00:03:14
  TRACK 04 AUDIO
    TITLE "15:cjc025_7032"
    INDEX 01 00:04:17
  TRACK 05 AUDIO
    TITLE "15:cjc025_7033"
    INDEX 01 00:06:22
  TRACK 06 AUDIO
    TITLE "15:cjc025_7034"
    INDEX 01 00:07:19
  TRACK 07 AUDIO
    TITLE "15:cjc025_7035"
    INDEX 01 00:09:18
  TRACK 08 AUDIO
    TITLE "15:cjc025_7036"
    INDEX 01 00:10:27
  TRACK 09 AUDIO
    TITLE "15:cjc025_7037"
    INDEX 01 00:12:46
  TRACK 10 AUDIO
    TITLE "15:cjc025_7038"
    INDEX 01 00:13:65
  TRACK 11 AUDIO
    TITLE "15:cjc025_7039"
    INDEX 01 00:15:54
  TRACK 12 AUDIO
    TITLE "15:cjc025_7040"
    INDEX 01 00:16:57
  TRACK 13 AUDIO
    TITLE "15:cjc025_7041"
    INDEX 01 00:18:48
  TRACK 14 AUDIO
    TITLE "15:cjc025_7042"
    INDEX 01 00:19:60
  TRACK 15 AUDIO
    TITLE "15:cjc025_7043"
    INDEX 01 00:21:74
  TRACK 16 AUDIO
    TITLE "15:cjc025_7044"
    INDEX 01 00:23:03
  TRACK 17 AUDIO
    TITLE "15:cjc025_7045"
    INDEX 01 00:25:50
  TRACK 18 AUDIO
    TITLE "15:cjc025_7046"
    INDEX 01 00:26:44
  TRACK 19 AUDIO
    TITLE "15:cjc025_7047"
    INDEX 01 00:28:53
  TRACK 20 AUDIO
    TITLE "15:cjc025_7048"
    INDEX 01 00:29:62
  TRACK 21 AUDIO
    TITLE "15:cjc025_7049"
    INDEX 01 00:31:59
  TRACK 22 AUDIO
    TITLE "15:cjc025_7050"
    INDEX 01 00:32:64
  TRACK 23 AUDIO
    TITLE "15:cjc025_7051"
    INDEX 01 00:34:55
  TRACK 24 AUDIO
    TITLE "15:cjc025_7052"
    INDEX 01 00:35:59
  TRACK 25 AUDIO
    TITLE "15:cjc025_7053"
    INDEX 01 00:37:67
  TRACK 26 AUDIO
    TITLE "15:cjc025_7054"
    INDEX 01 00:38:63
  TRACK 27 AUDIO
    TITLE "15:cjc025_7055"
    INDEX 01 00:40:58
  TRACK 28 AUDIO
    TITLE "15:cjc025_7056"
    INDEX 01 00:41:55
  TRACK 29 AUDIO
    TITLE "15:cjc025_7057"
    INDEX 01 00:43:48
  TRACK 30 AUDIO
    TITLE "15:cjc025_7058"
    INDEX 01 00:44:52
  TRACK 31 AUDIO
    TITLE "15:cjc025_7059"
    INDEX 01 00:46:43
  TRACK 32 AUDIO
    TITLE "15:cjc025_7060"
    INDEX 01 00:47:66
  TRACK 33 AUDIO
    TITLE "15:cjc025_7061"
    INDEX 01 00:49:45
  TRACK 34 AUDIO
    TITLE "15:cjc025_7062"
    INDEX 01 00:50:62
  TRACK 35 AUDIO
    TITLE "15:cjc025_7063"
    INDEX 01 00:52:55
  TRACK 36 AUDIO
    TITLE "15:cjc025_7064"
    INDEX 01 00:53:70
  TRACK 37 AUDIO
    TITLE "15:cjc025_7065"
    INDEX 01 00:55:71
  TRACK 38 AUDIO
    TITLE "15:cjc025_7066"
    INDEX 01 00:57:05
  TRACK 39 AUDIO
    TITLE "15:cjc025_7067"
    INDEX 01 00:59:18
  TRACK 40 AUDIO
    TITLE "15:cjc025_7068"
    INDEX 01 01:00:15
  TRACK 41 AUDIO
    TITLE "15:cjc025_7069"
    INDEX 01 01:01:64
  TRACK 42 AUDIO
    TITLE "15:cjc025_7070"
    INDEX 01 01:03:24
  TRACK 43 AUDIO
    TITLE "15:cjc025_7071"
    INDEX 01 01:05:21
  TRACK 44 AUDIO
    TITLE "15:cjc025_7072"
    INDEX 01 01:06:43
  TRACK 45 AUDIO
    TITLE "15:cjc025_7073"
    INDEX 01 01:08:58
  TRACK 46 AUDIO
    TITLE "15:cjc025_7074"
    INDEX 01 01:09:48
  TRACK 47 AUDIO
    TITLE "15:cjc025_7075"
    INDEX 01 01:11:17
  TRACK 48 AUDIO
    TITLE "15:cjc025_7076"
    INDEX 01 01:12:19
  TRACK 49 AUDIO
    TITLE "15:cjc025_7077"
    INDEX 01 01:14:27
  TRACK 50 AUDIO
    TITLE "15:cjc025_7078"
    INDEX 01 01:15:29
  TRACK 51 AUDIO
    TITLE "15:cjc025_7079"
    INDEX 01 01:17:35
  TRACK 52 AUDIO
    TITLE "15:cjc025_7080"
    INDEX 01 01:18:29
  TRACK 53 AUDIO
    TITLE "15:cjc025_7081"
    INDEX 01 01:20:04
  TRACK 54 AUDIO
    TITLE "15:cjc025_7082"
    INDEX 01 01:21:06
  TRACK 55 AUDIO
    TITLE "15:cjc025_7083"
    INDEX 01 01:23:11
  TRACK 56 AUDIO
    TITLE "15:cjc025_7084"
    INDEX 01 01:24:26
  TRACK 57 AUDIO
    TITLE "15:cjc025_7085"
    INDEX 01 01:26:27
  TRACK 58 AUDIO
    TITLE "15:cjc025_7086"
    INDEX 01 01:27:38
  TRACK 59 AUDIO
    TITLE "15:cjc025_7087"
    INDEX 01 01:29:23
  TRACK 60 AUDIO
    TITLE "15:cjc025_7088"
    INDEX 01 01:30:20
  TRACK 61 AUDIO
    TITLE "15:cjc025_7089"
    INDEX 01 01:32:39
  TRACK 62 AUDIO
    TITLE "15:cjc025_7090"
    INDEX 01 01:33:44
  TRACK 63 AUDIO
    TITLE "15:cjc025_7091"
    INDEX 01 01:35:45
  TRACK 64 AUDIO
    TITLE "15:cjc025_7092"
    INDEX 01 01:36:47
  TRACK 65 AUDIO
    TITLE "15:cjc025_7093"
    INDEX 01 01:38:43
  TRACK 66 AUDIO
    TITLE "15:cjc025_7094"
    INDEX 01 01:39:43
  TRACK 67 AUDIO
    TITLE "15:cjc025_7095"
    INDEX 01 01:41:32
  TRACK 68 AUDIO
    TITLE "15:cjc025_7096"
    INDEX 01 01:42:30
  TRACK 69 AUDIO
    TITLE "15:cjc025_7097"
    INDEX 01 01:44:28
  TRACK 70 AUDIO
    TITLE "15:cjc025_7098"
    INDEX 01 01:45:36
  TRACK 71 AUDIO
    TITLE "15:cjc025_7099"
    INDEX 01 01:47:07
  TRACK 72 AUDIO
    TITLE "15:cjc025_7100"
    INDEX 01 01:48:11
  TRACK 73 AUDIO
    TITLE "15:cjc025_7101"
    INDEX 01 01:49:71
  TRACK 74 AUDIO
    TITLE "15:cjc025_7102"
    INDEX 01 01:50:66
  TRACK 75 AUDIO
    TITLE "15:cjc025_7103"
    INDEX 01 01:52:57
  TRACK 76 AUDIO
    TITLE "15:cjc025_7104"
    INDEX 01 01:53:72
  TRACK 77 AUDIO
    TITLE "15:cjc025_7105"
    INDEX 01 01:55:62
  TRACK 78 AUDIO
    TITLE "15:cjc025_7106"
    INDEX 01 01:56:53
  TRACK 79 AUDIO
    TITLE "15:cjc025_7107"
    INDEX 01 01:58:34
  TRACK 80 AUDIO
    TITLE "15:cjc025_7108"
    INDEX 01 01:59:38
  TRACK 81 AUDIO
    TITLE "15:cjc025_7109"
    INDEX 01 02:02:50
  TRACK 82 AUDIO
    TITLE "15:cjc025_7110"
    INDEX 01 02:03:39
  TRACK 83 AUDIO
    TITLE "15:cjc025_7111"
    INDEX 01 02:04:74
  TRACK 84 AUDIO
    TITLE "15:cjc025_7112"
    INDEX 01 02:06:05
  TRACK 85 AUDIO
    TITLE "15:cjc025_7113"
    INDEX 01 02:07:65
  TRACK 86 AUDIO
    TITLE "15:cjc025_7114"
    INDEX 01 02:09:03
  TRACK 87 AUDIO
    TITLE "15:cjc025_7115"
    INDEX 01 02:10:69
  TRACK 88 AUDIO
    TITLE "15:cjc025_7116"
    INDEX 01 02:11:66
  TRACK 89 AUDIO
    TITLE "15:cjc025_7117"
    INDEX 01 02:14:00
  TRACK 90 AUDIO
    TITLE "15:cjc025_7118"
    INDEX 01 02:15:02
  TRACK 91 AUDIO
    TITLE "15:cjc025_7119"
    INDEX 01 02:17:14
  TRACK 92 AUDIO
    TITLE "15:cjc025_7120"
    INDEX 01 02:17:69
  TRACK 93 AUDIO
    TITLE "15:cjc025_7121"
    INDEX 01 02:19:56
  TRACK 94 AUDIO
    TITLE "15:cjc025_7122"
    INDEX 01 02:20:48
  TRACK 95 AUDIO
    TITLE "15:cjc025_7123"
    INDEX 01 02:22:29
  TRACK 96 AUDIO
    TITLE "15:cjc025_7124"
    INDEX 01 02:23:19
  TRACK 97 AUDIO
    TITLE "15:cjc025_7125"
    INDEX 01 02:25:00
  TRACK 98 AUDIO
    TITLE "15:cjc025_7126"
    INDEX 01 02:26:09
  TRACK 99 AUDIO
    TITLE "15:cjc025_7127"
    INDEX 01 02:28:18
  TRACK 100 AUDIO
    TITLE "15:cjc025_7128"
    INDEX 01 02:29:15
  TRACK 101 AUDIO
    TITLE "15:cjc025_7129"
    INDEX 01 02:31:34
  TRACK 102 AUDIO
    TITLE "15:cjc025_7130"
    INDEX 01 02:32:37
  TRACK 103 AUDIO
    TITLE "15:cjc025_7131"
    INDEX 01 02:34:20
  TRACK 104 AUDIO
    TITLE "15:cjc025_7132"
    INDEX 01 02:35:43
  TRACK 105 AUDIO
    TITLE "15:cjc025_7133"
    INDEX 01 02:38:06
  TRACK 106 AUDIO
    TITLE "15:cjc025_7134"
    INDEX 01 02:39:10
  TRACK 107 AUDIO
    TITLE "15:cjc025_7135"
    INDEX 01 02:41:01
  TRACK 108 AUDIO
    TITLE "15:cjc025_7136"
    INDEX 01 02:42:00
  TRACK 109 AUDIO
    TITLE "15:cjc025_7137"
    INDEX 01 02:43:55
  TRACK 110 AUDIO
    TITLE "15:cjc025_7138"
    INDEX 01 02:44:56
  TRACK 111 AUDIO
    TITLE "15:cjc025_7139"
    INDEX 01 02:46:35
  TRACK 112 AUDIO
    TITLE "15:cjc025_7140"
    INDEX 01 02:47:27
  TRACK 113 AUDIO
    TITLE "15:cjc025_7141"
    INDEX 01 02:49:53
  TRACK 114 AUDIO
    TITLE "15:cjc025_7142"
    INDEX 01 02:50:31
  TRACK 115 AUDIO
    TITLE "15:cjc025_7143"
    INDEX 01 02:52:20
  TRACK 116 AUDIO
    TITLE "15:cjc025_7144"
    INDEX 01 02:53:14
  TRACK 117 AUDIO
    TITLE "15:cjc025_7145"
    INDEX 01 02:55:17
  TRACK 118 AUDIO
    TITLE "15:cjc025_7146"
    INDEX 01 02:56:02
  TRACK 119 AUDIO
    TITLE "15:cjc025_7147"
    INDEX 01 02:58:52
  TRACK 120 AUDIO
    TITLE "15:cjc025_7148"
    INDEX 01 02:59:54
  TRACK 121 AUDIO
    TITLE "15:cjc025_7149"
    INDEX 01 03:01:23
  TRACK 122 AUDIO
    TITLE "15:cjc025_7150"
    INDEX 01 03:02:36
  TRACK 123 AUDIO
    TITLE "15:cjc025_7151"
    INDEX 01 03:04:51
  TRACK 124 AUDIO
    TITLE "15:cjc025_7152"
    INDEX 01 03:05:72
  TRACK 125 AUDIO
    TITLE "15:cjc025_7153"
    INDEX 01 03:07:73
  TRACK 126 AUDIO
    TITLE "15:cjc025_7154"
    INDEX 01 03:09:03
  TRACK 127 AUDIO
    TITLE "15:cjc025_7155"
    INDEX 01 03:11:06
  TRACK 128 AUDIO
    TITLE "15:cjc025_7156"
    INDEX 01 03:12:09
  TRACK 129 AUDIO
    TITLE "15:cjc025_7157"
    INDEX 01 03:14:16
  TRACK 130 AUDIO
    TITLE "15:cjc025_7158"
    INDEX 01 03:15:14
  TRACK 131 AUDIO
    TITLE "15:cjc025_7159"
    INDEX 01 03:17:36
  TRACK 132 AUDIO
    TITLE "15:cjc025_7160"
    INDEX 01 03:18:41
  TRACK 133 AUDIO
    TITLE "15:cjc025_7161"
    INDEX 01 03:20:60
  TRACK 134 AUDIO
    TITLE "15:cjc025_7162"
    INDEX 01 03:21:59
  TRACK 135 AUDIO
    TITLE "15:cjc025_7163"
    INDEX 01 03:23:58
  TRACK 136 AUDIO
    TITLE "15:cjc025_7164"
    INDEX 01 03:24:60
  TRACK 137 AUDIO
    TITLE "15:cjc025_7165"
    INDEX 01 03:26:62
  TRACK 138 AUDIO
    TITLE "15:cjc025_7166"
    INDEX 01 03:27:60
  TRACK 139 AUDIO
    TITLE "15:cjc025_7167"
    INDEX 01 03:29:70
  TRACK 140 AUDIO
    TITLE "15:cjc025_7168"
    INDEX 01 03:30:60
  TRACK 141 AUDIO
    TITLE "15:cjc025_7169"
    INDEX 01 03:32:43
  TRACK 142 AUDIO
    TITLE "15:cjc025_7170"
    INDEX 01 03:33:37
  TRACK 143 AUDIO
    TITLE "15:cjc025_7171"
    INDEX 01 03:35:34
  TRACK 144 AUDIO
    TITLE "15:cjc025_7172"
    INDEX 01 03:36:29
  TRACK 145 AUDIO
    TITLE "15:cjc025_7173"
    INDEX 01 03:38:30
  TRACK 146 AUDIO
    TITLE "15:cjc025_7174"
    INDEX 01 03:39:32
  TRACK 147 AUDIO
    TITLE "15:cjc025_7175"
    INDEX 01 03:41:40
  TRACK 148 AUDIO
    TITLE "15:cjc025_7176"
    INDEX 01 03:42:61
  TRACK 149 AUDIO
    TITLE "15:cjc025_7177"
    INDEX 01 03:44:50
  TRACK 150 AUDIO
    TITLE "15:cjc025_7178"
    INDEX 01 03:45:58
  TRACK 151 AUDIO
    TITLE "15:cjc025_7179"
    INDEX 01 03:47:39
  TRACK 152 AUDIO
    TITLE "15:cjc025_7180"
    INDEX 01 03:48:48
  TRACK 153 AUDIO
    TITLE "15:cjc025_7181"
    INDEX 01 03:50:57
  TRACK 154 AUDIO
    TITLE "15:cjc025_7182"
    INDEX 01 03:51:62
  TRACK 155 AUDIO
    TITLE "15:cjc025_7183"
    INDEX 01 03:54:02
  TRACK 156 AUDIO
    TITLE "15:cjc025_7184"
    INDEX 01 03:55:21
  TRACK 157 AUDIO
    TITLE "15:cjc025_7185"
    INDEX 01 03:57:26
  TRACK 158 AUDIO
    TITLE "15:cjc025_7186"
    INDEX 01 03:58:21
  TRACK 159 AUDIO
    TITLE "15:cjc025_7187"
    INDEX 01 04:00:02
  TRACK 160 AUDIO
    TITLE "15:cjc025_7188"
    INDEX 01 04:01:10
  TRACK 161 AUDIO
    TITLE "15:cjc025_7189"
    INDEX 01 04:02:56
  TRACK 162 AUDIO
    TITLE "15:cjc025_7190"
    INDEX 01 04:03:58
  TRACK 163 AUDIO
    TITLE "15:cjc025_7191"
    INDEX 01 04:05:57
  TRACK 164 AUDIO
    TITLE "15:cjc025_7192"
    INDEX 01 04:06:66
  TRACK 165 AUDIO
    TITLE "15:cjc025_7193"
    INDEX 01 04:08:37
  TRACK 166 AUDIO
    TITLE "15:cjc025_7194"
    INDEX 01 04:09:50
  TRACK 167 AUDIO
    TITLE "15:cjc025_7195"
    INDEX 01 04:11:34
  TRACK 168 AUDIO
    TITLE "15:cjc025_7196"
    INDEX 01 04:12:49
  TRACK 169 AUDIO
    TITLE "15:cjc025_7197"
    INDEX 01 04:14:59
  TRACK 170 AUDIO
    TITLE "15:cjc025_7198"
    INDEX 01 04:15:47
  TRACK 171 AUDIO
    TITLE "15:cjc025_7199"
    INDEX 01 04:17:28
  TRACK 172 AUDIO
    TITLE "15:cjc025_7200"
    INDEX 01 04:18:43
  TRACK 173 AUDIO
    TITLE "15:cjc025_7201"
    INDEX 01 04:20:44
  TRACK 174 AUDIO
    TITLE "15:cjc025_7202"
    INDEX 01 04:21:44
  TRACK 175 AUDIO
    TITLE "15:cjc025_7203"
    INDEX 01 04:23:47
  TRACK 176 AUDIO
    TITLE "15:cjc025_7204"
    INDEX 01 04:24:40
  TRACK 177 AUDIO
    TITLE "15:cjc025_7205"
    INDEX 01 04:26:49
  TRACK 178 AUDIO
    TITLE "15:cjc025_7206"
    INDEX 01 04:27:68
  TRACK 179 AUDIO
    TITLE "15:cjc025_7207"
    INDEX 01 04:29:63
  TRACK 180 AUDIO
    TITLE "15:cjc025_7208"
    INDEX 01 04:31:15
  TRACK 181 AUDIO
    TITLE "15:cjc025_7209"
    INDEX 01 04:33:14
  TRACK 182 AUDIO
    TITLE "15:cjc025_7210"
    INDEX 01 04:34:11
  TRACK 183 AUDIO
    TITLE "15:cjc025_7211"
    INDEX 01 04:36:04
  TRACK 184 AUDIO
    TITLE "15:cjc025_7212"
    INDEX 01 04:37:08
  TRACK 185 AUDIO
    TITLE "15:cjc025_7213"
    INDEX 01 04:38:74
  TRACK 186 AUDIO
    TITLE "15:cjc025_7214"
    INDEX 01 04:40:04
  TRACK 187 AUDIO
    TITLE "15:cjc025_7215"
    INDEX 01 04:42:26
  TRACK 188 AUDIO
    TITLE "15:cjc025_7216"
    INDEX 01 04:43:41
  TRACK 189 AUDIO
    TITLE "15:cjc025_7217"
    INDEX 01 04:45:34
  TRACK 190 AUDIO
    TITLE "15:cjc025_7218"
    INDEX 01 04:46:30
  TRACK 191 AUDIO
    TITLE "15:cjc025_7219"
    INDEX 01 04:48:09
  TRACK 192 AUDIO
    TITLE "15:cjc025_7220"
    INDEX 01 04:49:17
  TRACK 193 AUDIO
    TITLE "15:cjc025_7221"
    INDEX 01 04:52:01
  TRACK 194 AUDIO
    TITLE "15:cjc025_7222"
    INDEX 01 04:53:18
  TRACK 195 AUDIO
    TITLE "15:cjc025_7223"
    INDEX 01 04:55:60
  TRACK 196 AUDIO
    TITLE "15:cjc025_7224"
    INDEX 01 04:56:68
  TRACK 197 AUDIO
    TITLE "15:cjc025_7225"
    INDEX 01 04:59:64
  TRACK 198 AUDIO
    TITLE "15:cjc025_7226"
    INDEX 01 05:00:46
  TRACK 199 AUDIO
    TITLE "15:cjc025_7227"
    INDEX 01 05:03:03
  TRACK 200 AUDIO
    TITLE "15:cjc025_7228"
    INDEX 01 05:04:10
  TRACK 201 AUDIO
    TITLE "15:cjc025_7229"
    INDEX 01 05:05:55
  TRACK 202 AUDIO
    TITLE "15:cjc025_7230"
    INDEX 01 05:06:56
  TRACK 203 AUDIO
    TITLE "15:cjc025_7231"
    INDEX 01 05:08:53
  TRACK 204 AUDIO
    TITLE "15:cjc025_7232"
    INDEX 01 05:09:66
  TRACK 205 AUDIO
    TITLE "15:cjc025_7233"
    INDEX 01 05:11:67
  TRACK 206 AUDIO
    TITLE "15:cjc025_7234"
    INDEX 01 05:12:67
  TRACK 207 AUDIO
    TITLE "15:cjc025_7235"
    INDEX 01 05:14:64
  TRACK 208 AUDIO
    TITLE "15:cjc025_7236"
    INDEX 01 05:15:63
  TRACK 209 AUDIO
    TITLE "15:cjc025_7237"
    INDEX 01 05:17:46
  TRACK 210 AUDIO
    TITLE "15:cjc025_7238"
    INDEX 01 05:18:40
  TRACK 211 AUDIO
    TITLE "15:cjc025_7239"
    INDEX 01 05:20:52
  TRACK 212 AUDIO
    TITLE "15:cjc025_7240"
    INDEX 01 05:21:58
  TRACK 213 AUDIO
    TITLE "15:cjc025_7241"
    INDEX 01 05:23:61
  TRACK 214 AUDIO
    TITLE "15:cjc025_7242"
    INDEX 01 05:25:07
  TRACK 215 AUDIO
    TITLE "15:cjc025_7243"
    INDEX 01 05:26:67
  TRACK 216 AUDIO
    TITLE "15:cjc025_7244"
    INDEX 01 05:27:74
  TRACK 217 AUDIO
    TITLE "15:cjc025_7245"
    INDEX 01 05:29:73
  TRACK 218 AUDIO
    TITLE "15:cjc025_7246"
    INDEX 01 05:31:07
  TRACK 219 AUDIO
    TITLE "15:cjc025_7247"
    INDEX 01 05:33:22
  TRACK 220 AUDIO
    TITLE "15:cjc025_7248"
    INDEX 01 05:34:25
  TRACK 221 AUDIO
    TITLE "15:cjc025_7249"
    INDEX 01 05:36:22
  TRACK 222 AUDIO
    TITLE "15:cjc025_7250"
    INDEX 01 05:37:35
  TRACK 223 AUDIO
    TITLE "15:cjc025_7251"
    INDEX 01 05:39:38
  TRACK 224 AUDIO
    TITLE "15:cjc025_7252"
    INDEX 01 05:40:26
  TRACK 225 AUDIO
    TITLE "15:cjc025_7253"
    INDEX 01 05:42:11
  TRACK 226 AUDIO
    TITLE "15:cjc025_7254"
    INDEX 01 05:43:22
  TRACK 227 AUDIO
    TITLE "15:cjc025_7255"
    INDEX 01 05:45:50
  TRACK 228 AUDIO
    TITLE "15:cjc025_7256"
    INDEX 01 05:46:42
  TRACK 229 AUDIO
    TITLE "15:cjc025_7257"
    INDEX 01 05:48:33
  TRACK 230 AUDIO
    TITLE "15:cjc025_7258"
    INDEX 01 05:49:33
  TRACK 231 AUDIO
    TITLE "15:cjc025_7259"
    INDEX 01 05:51:43
  TRACK 232 AUDIO
    TITLE "15:cjc025_7260"
    INDEX 01 05:52:35
  TRACK 233 AUDIO
    TITLE "15:cjc025_7261"
    INDEX 01 05:54:24
  TRACK 234 AUDIO
    TITLE "15:cjc025_7262"
    INDEX 01 05:55:31
  TRACK 235 AUDIO
    TITLE "15:cjc025_7263"
    INDEX 01 05:56:74
  TRACK 236 AUDIO
    TITLE "15:cjc025_7264"
    INDEX 01 05:58:08
  TRACK 237 AUDIO
    TITLE "15:cjc025_7265"
    INDEX 01 05:59:58
  TRACK 238 AUDIO
    TITLE "15:cjc025_7266"
    INDEX 01 06:00:72
  TRACK 239 AUDIO
    TITLE "15:cjc025_7267"
    INDEX 01 06:03:17
  TRACK 240 AUDIO
    TITLE "15:cjc025_7268"
    INDEX 01 06:04:24
  TRACK 241 AUDIO
    TITLE "15:cjc025_7269"
    INDEX 01 06:06:00
  TRACK 242 AUDIO
    TITLE "15:cjc025_7270"
    INDEX 01 06:07:19
  TRACK 243 AUDIO
    TITLE "15:cjc025_7271"
    INDEX 01 06:09:02
  TRACK 244 AUDIO
    TITLE "15:cjc025_7272"
    INDEX 01 06:10:15
  TRACK 245 AUDIO
    TITLE "15:cjc025_7273"
    INDEX 01 06:12:10
  TRACK 246 AUDIO
    TITLE "15:cjc025_7274"
    INDEX 01 06:13:13
  TRACK 247 AUDIO
    TITLE "15:cjc025_7275"
    INDEX 01 06:15:24
  TRACK 248 AUDIO
    TITLE "15:cjc025_7276"
    INDEX 01 06:16:29
  TRACK 249 AUDIO
    TITLE "15:cjc025_7277"
    INDEX 01 06:18:52
  TRACK 250 AUDIO
    TITLE "15:cjc025_7278"
    INDEX 01 06:19:73
  TRACK 251 AUDIO
    TITLE "15:cjc025_7279"
    INDEX 01 06:21:66
  TRACK 252 AUDIO
    TITLE "15:cjc025_7280"
    INDEX 01 06:23:12
  TRACK 253 AUDIO
    TITLE "15:cjc025_7281"
    INDEX 01 06:25:21
  TRACK 254 AUDIO
    TITLE "15:cjc025_7282"
    INDEX 01 06:26:24
  TRACK 255 AUDIO
    TITLE "15:cjc025_7283"
    INDEX 01 06:28:01
  TRACK 256 AUDIO
    TITLE "15:cjc025_7284"
    INDEX 01 06:29:24
  TRACK 257 AUDIO
    TITLE "15:cjc025_7285"
    INDEX 01 06:31:41
  TRACK 258 AUDIO
    TITLE "15:cjc025_7286"
    INDEX 01 06:32:36
  TRACK 259 AUDIO
    TITLE "15:cjc025_7287"
    INDEX 01 06:34:39
  TRACK 260 AUDIO
    TITLE "15:cjc025_7288"
    INDEX 01 06:35:52
  TRACK 261 AUDIO
    TITLE "15:cjc025_7289"
    INDEX 01 06:37:47
  TRACK 262 AUDIO
    TITLE "15:cjc025_7290"
    INDEX 01 06:38:56
  TRACK 263 AUDIO
    TITLE "15:cjc025_7291"
    INDEX 01 06:40:36
  TRACK 264 AUDIO
    TITLE "15:cjc025_7292"
    INDEX 01 06:41:57
  TRACK 265 AUDIO
    TITLE "15:cjc025_7293"
    INDEX 01 06:43:62
  TRACK 266 AUDIO
    TITLE "15:cjc025_7294"
    INDEX 01 06:45:04
  TRACK 267 AUDIO
    TITLE "15:cjc025_7295"
    INDEX 01 06:46:70
  TRACK 268 AUDIO
    TITLE "15:cjc025_7296"
    INDEX 01 06:48:02
  TRACK 269 AUDIO
    TITLE "15:cjc025_7297"
    INDEX 01 06:50:03
  TRACK 270 AUDIO
    TITLE "15:cjc025_7298"
    INDEX 01 06:51:16
  TRACK 271 AUDIO
    TITLE "15:cjc025_7299"
    INDEX 01 06:52:70
  TRACK 272 AUDIO
    TITLE "15:cjc025_7300"
    INDEX 01 06:53:54
  TRACK 273 AUDIO
    TITLE "15:cjc025_7301"
    INDEX 01 06:55:47
  TRACK 274 AUDIO
    TITLE "15:cjc025_7302"
    INDEX 01 06:56:54
  TRACK 275 AUDIO
    TITLE "15:cjc025_7303"
    INDEX 01 06:58:47
  TRACK 276 AUDIO
    TITLE "15:cjc025_7304"
    INDEX 01 06:59:41
  TRACK 277 AUDIO
    TITLE "15:cjc025_7305"
    INDEX 01 07:01:14
  TRACK 278 AUDIO
    TITLE "15:cjc025_7306"
    INDEX 01 07:02:28
  TRACK 279 AUDIO
    TITLE "15:cjc025_7307"
    INDEX 01 07:04:23
  TRACK 280 AUDIO
    TITLE "15:cjc025_7308"
    INDEX 01 07:05:30
  TRACK 281 AUDIO
    TITLE "15:cjc025_7309"
    INDEX 01 07:07:05
  TRACK 282 AUDIO
    TITLE "15:cjc025_7310"
    INDEX 01 07:07:74
  TRACK 283 AUDIO
    TITLE "15:cjc025_7311"
    INDEX 01 07:10:02
  TRACK 284 AUDIO
    TITLE "15:cjc025_7312"
    INDEX 01 07:11:05
  TRACK 285 AUDIO
    TITLE "15:cjc025_7313"
    INDEX 01 07:12:51
  TRACK 286 AUDIO
    TITLE "15:cjc025_7314"
    INDEX 01 07:13:65
  TRACK 287 AUDIO
    TITLE "15:cjc025_7315"
    INDEX 01 07:15:54
  TRACK 288 AUDIO
    TITLE "15:cjc025_7316"
    INDEX 01 07:16:47
  TRACK 289 AUDIO
    TITLE "15:cjc025_7317"
    INDEX 01 07:18:19
  TRACK 290 AUDIO
    TITLE "15:cjc025_7318"
    INDEX 01 07:19:28
  TRACK 291 AUDIO
    TITLE "15:cjc025_7319"
    INDEX 01 07:22:11
  TRACK 292 AUDIO
    TITLE "15:cjc025_7320"
    INDEX 01 07:23:10
  TRACK 293 AUDIO
    TITLE "15:cjc025_7321"
    INDEX 01 07:24:57
  TRACK 294 AUDIO
    TITLE "15:cjc025_7322"
    INDEX 01 07:25:62
  TRACK 295 AUDIO
    TITLE "15:cjc025_7323"
    INDEX 01 07:27:45
  TRACK 296 AUDIO
    TITLE "15:cjc025_7324"
    INDEX 01 07:28:37
  TRACK 297 AUDIO
    TITLE "15:cjc025_7325"
    INDEX 01 07:30:45
  TRACK 298 AUDIO
    TITLE "15:cjc025_7326"
    INDEX 01 07:31:49
  TRACK 299 AUDIO
    TITLE "15:cjc025_7327"
    INDEX 01 07:33:50
  TRACK 300 AUDIO
    TITLE "15:cjc025_7328"
    INDEX 01 07:34:53
  TRACK 301 AUDIO
    TITLE "15:cjc025_7329"
    INDEX 01 07:36:26
  TRACK 302 AUDIO
    TITLE "15:cjc025_7330"
    INDEX 01 07:37:20
  TRACK 303 AUDIO
    TITLE "15:cjc025_7331"
    INDEX 01 07:39:09
  TRACK 304 AUDIO
    TITLE "15:cjc025_7332"
    INDEX 01 07:40:28
  TRACK 305 AUDIO
    TITLE "15:cjc025_7333"
    INDEX 01 07:42:25
  TRACK 306 AUDIO
    TITLE "15:cjc025_7334"
    INDEX 01 07:43:32
  TRACK 307 AUDIO
    TITLE "15:cjc025_7335"
    INDEX 01 07:45:43
  TRACK 308 AUDIO
    TITLE "15:cjc025_7336"
    INDEX 01 07:46:52
  TRACK 309 AUDIO
    TITLE "15:cjc025_7337"
    INDEX 01 07:48:61
  TRACK 310 AUDIO
    TITLE "15:cjc025_7338"
    INDEX 01 07:49:68
  TRACK 311 AUDIO
    TITLE "15:cjc025_7339"
    INDEX 01 07:52:20
  TRACK 312 AUDIO
    TITLE "15:cjc025_7340"
    INDEX 01 07:53:35
  TRACK 313 AUDIO
    TITLE "15:cjc025_7341"
    INDEX 01 07:55:30
  TRACK 314 AUDIO
    TITLE "15:cjc025_7342"
    INDEX 01 07:56:43
  TRACK 315 AUDIO
    TITLE "15:cjc025_7343"
    INDEX 01 07:58:61
  TRACK 316 AUDIO
    TITLE "15:cjc025_7344"
    INDEX 01 07:59:45
  TRACK 317 AUDIO
    TITLE "15:cjc025_7345"
    INDEX 01 08:01:36
  TRACK 318 AUDIO
    TITLE "15:cjc025_7346"
    INDEX 01 08:02:36
  TRACK 319 AUDIO
    TITLE "15:cjc025_7347"
    INDEX 01 08:04:40
  TRACK 320 AUDIO
    TITLE "15:cjc025_7348"
    INDEX 01 08:05:48
  TRACK 321 AUDIO
    TITLE "15:cjc025_7349"
    INDEX 01 08:07:62
  TRACK 322 AUDIO
    TITLE "15:cjc025_7350"
    INDEX 01 08:09:06
  TRACK 323 AUDIO
    TITLE "15:cjc025_7351"
    INDEX 01 08:10:70
  TRACK 324 AUDIO
    TITLE "15:cjc025_7352"
    INDEX 01 08:11:74
  TRACK 325 AUDIO
    TITLE "15:cjc025_7353"
    INDEX 01 08:13:57
  TRACK 326 AUDIO
    TITLE "15:cjc025_7354"
    INDEX 01 08:14:64
  TRACK 327 AUDIO
    TITLE "15:cjc025_7355"
    INDEX 01 08:16:51
  TRACK 328 AUDIO
    TITLE "15:cjc025_7356"
    INDEX 01 08:17:61
  TRACK 329 AUDIO
    TITLE "15:cjc025_7357"
    INDEX 01 08:19:48
  TRACK 330 AUDIO
    TITLE "15:cjc025_7358"
    INDEX 01 08:20:59
  TRACK 331 AUDIO
    TITLE "15:cjc025_7359"
    INDEX 01 08:22:70
  TRACK 332 AUDIO
    TITLE "15:cjc025_7360"
    INDEX 01 08:24:12
  TRACK 333 AUDIO
    TITLE "15:cjc025_7361"
    INDEX 01 08:26:03
  TRACK 334 AUDIO
    TITLE "15:cjc025_7362"
    INDEX 01 08:27:02
  TRACK 335 AUDIO
    TITLE "15:cjc025_7363"
    INDEX 01 08:28:57
  TRACK 336 AUDIO
    TITLE "15:cjc025_7364"
    INDEX 01 08:29:64
  TRACK 337 AUDIO
    TITLE "15:cjc025_7365"
    INDEX 01 08:31:59
  TRACK 338 AUDIO
    TITLE "15:cjc025_7366"
    INDEX 01 08:32:62
  TRACK 339 AUDIO
    TITLE "15:cjc025_7367"
    INDEX 01 08:35:08
  TRACK 340 AUDIO
    TITLE "15:cjc025_7368"
    INDEX 01 08:36:11
  TRACK 341 AUDIO
    TITLE "15:cjc025_7369"
    INDEX 01 08:39:58
  TRACK 342 AUDIO
    TITLE "15:cjc025_7370"
    INDEX 01 08:40:70
  TRACK 343 AUDIO
    TITLE "15:cjc025_7371"
    INDEX 01 08:43:01
  TRACK 344 AUDIO
    TITLE "15:cjc025_7372"
    INDEX 01 08:44:07
  TRACK 345 AUDIO
    TITLE "15:cjc025_7373"
    INDEX 01 08:47:36
  TRACK 346 AUDIO
    TITLE "15:cjc025_7374"
    INDEX 01 08:48:40
  TRACK 347 AUDIO
    TITLE "15:cjc025_7375"
    INDEX 01 08:50:50
  TRACK 348 AUDIO
    TITLE "15:cjc025_7376"
    INDEX 01 08:51:52
  TRACK 349 AUDIO
    TITLE "15:cjc025_7377"
    INDEX 01 08:53:41
  TRACK 350 AUDIO
    TITLE "15:cjc025_7378"
    INDEX 01 08:54:62
  TRACK 351 AUDIO
    TITLE "15:cjc025_7379"
    INDEX 01 08:56:67
  TRACK 352 AUDIO
    TITLE "15:cjc025_7380"
    INDEX 01 08:57:74
  TRACK 353 AUDIO
    TITLE "15:cjc025_7381"
    INDEX 01 09:00:33
  TRACK 354 AUDIO
    TITLE "15:cjc025_7382"
    INDEX 01 09:01:29
  TRACK 355 AUDIO
    TITLE "15:cjc025_7383"
    INDEX 01 09:03:31
  TRACK 356 AUDIO
    TITLE "15:cjc025_7384"
    INDEX 01 09:04:37
  TRACK 357 AUDIO
    TITLE "15:cjc025_7385"
    INDEX 01 09:06:49
  TRACK 358 AUDIO
    TITLE "15:cjc025_7386"
    INDEX 01 09:07:55
  TRACK 359 AUDIO
    TITLE "15:cjc025_7387"
    INDEX 01 09:10:65
  TRACK 360 AUDIO
    TITLE "15:cjc025_7388"
    INDEX 01 09:11:74
  TRACK 361 AUDIO
    TITLE "15:cjc025_7389"
    INDEX 01 09:13:67
  TRACK 362 AUDIO
    TITLE "15:cjc025_7390"
    INDEX 01 09:14:65
  TRACK 363 AUDIO
    TITLE "15:cjc025_7391"
    INDEX 01 09:16:69
  TRACK 364 AUDIO
    TITLE "15:cjc025_7392"
    INDEX 01 09:17:71
  TRACK 365 AUDIO
    TITLE "15:cjc025_7393"
    INDEX 01 09:20:22
  TRACK 366 AUDIO
    TITLE "15:cjc025_7394"
    INDEX 01 09:21:25
  TRACK 367 AUDIO
    TITLE "15:cjc025_7395"
    INDEX 01 09:23:16
  TRACK 368 AUDIO
    TITLE "15:cjc025_7396"
    INDEX 01 09:24:02
  TRACK 369 AUDIO
    TITLE "15:cjc025_7397"
    INDEX 01 09:25:55
  TRACK 370 AUDIO
    TITLE "15:cjc025_7398"
    INDEX 01 09:26:58
  TRACK 371 AUDIO
    TITLE "15:cjc025_7399"
    INDEX 01 09:28:51
  TRACK 372 AUDIO
    TITLE "15:cjc025_7400"
    INDEX 01 09:29:58
  TRACK 373 AUDIO
    TITLE "15:cjc025_7401"
    INDEX 01 09:31:38
  TRACK 374 AUDIO
    TITLE "15:cjc025_7402"
    INDEX 01 09:32:45
  TRACK 375 AUDIO
    TITLE "15:cjc025_7403"
    INDEX 01 09:34:65
  TRACK 376 AUDIO
    TITLE "15:cjc025_7404"
    INDEX 01 09:35:69
  TRACK 377 AUDIO
    TITLE "15:cjc025_7405"
    INDEX 01 09:37:64
  TRACK 378 AUDIO
    TITLE "15:cjc025_7406"
    INDEX 01 09:38:71
  TRACK 379 AUDIO
    TITLE "15:cjc025_7407"
    INDEX 01 09:40:74
  TRACK 380 AUDIO
    TITLE "15:cjc025_7408"
    INDEX 01 09:42:00
  TRACK 381 AUDIO
    TITLE "15:cjc025_7409"
    INDEX 01 09:43:64
  TRACK 382 AUDIO
    TITLE "15:cjc025_7410"
    INDEX 01 09:44:62
  TRACK 383 AUDIO
    TITLE "15:cjc025_7411"
    INDEX 01 09:46:57
  TRACK 384 AUDIO
    TITLE "15:cjc025_7412"
    INDEX 01 09:47:44
  TRACK 385 AUDIO
    TITLE "15:cjc025_7413"
    INDEX 01 09:49:41
  TRACK 386 AUDIO
    TITLE "15:cjc025_7414"
    INDEX 01 09:50:47
  TRACK 387 AUDIO
    TITLE "15:cjc025_7415"
    INDEX 01 09:52:28
  TRACK 388 AUDIO
    TITLE "15:cjc025_7416"
    INDEX 01 09:53:29
  TRACK 389 AUDIO
    TITLE "15:cjc025_7417"
    INDEX 01 09:55:15
  TRACK 390 AUDIO
    TITLE "15:cjc025_7418"
    INDEX 01 09:56:20
  TRACK 391 AUDIO
    TITLE "15:cjc025_7419"
    INDEX 01 09:58:30
  TRACK 392 AUDIO
    TITLE "15:cjc025_7420"
    INDEX 01 09:59:30
  TRACK 393 AUDIO
    TITLE "15:cjc025_7421"
    INDEX 01 10:01:50
  TRACK 394 AUDIO
    TITLE "15:cjc025_7422"
    INDEX 01 10:02:62
  TRACK 395 AUDIO
    TITLE "15:cjc025_7423"
    INDEX 01 10:04:33
  TRACK 396 AUDIO
    TITLE "15:cjc025_7424"
    INDEX 01 10:05:48
  TRACK 397 AUDIO
    TITLE "15:cjc025_7425"
    INDEX 01 10:07:45
  TRACK 398 AUDIO
    TITLE "15:cjc025_7426"
    INDEX 01 10:08:39
  TRACK 399 AUDIO
    TITLE "15:cjc025_7427"
    INDEX 01 10:10:32
  TRACK 400 AUDIO
    TITLE "15:cjc025_7428"
    INDEX 01 10:11:27
  TRACK 401 AUDIO
    TITLE "15:cjc025_7429"
    INDEX 01 10:13:26
  TRACK 402 AUDIO
    TITLE "15:cjc025_7430"
    INDEX 01 10:14:39
  TRACK 403 AUDIO
    TITLE "15:cjc025_7431"
    INDEX 01 10:16:26
  TRACK 404 AUDIO
    TITLE "15:cjc025_7432"
    INDEX 01 10:17:22
  TRACK 405 AUDIO
    TITLE "15:cjc025_7433"
    INDEX 01 10:19:31
  TRACK 406 AUDIO
    TITLE "15:cjc025_7434"
    INDEX 01 10:20:20
  TRACK 407 AUDIO
    TITLE "15:cjc025_7435"
    INDEX 01 10:22:31
  TRACK 408 AUDIO
    TITLE "15:cjc025_7436"
    INDEX 01 10:23:27
  TRACK 409 AUDIO
    TITLE "15:cjc025_7437"
    INDEX 01 10:25:04
  TRACK 410 AUDIO
    TITLE "15:cjc025_7438"
    INDEX 01 10:26:11
  TRACK 411 AUDIO
    TITLE "15:cjc025_7439"
    INDEX 01 10:28:06
  TRACK 412 AUDIO
    TITLE "15:cjc025_7440"
    INDEX 01 10:29:21
  TRACK 413 AUDIO
    TITLE "15:cjc025_7441"
    INDEX 01 10:31:32
  TRACK 414 AUDIO
    TITLE "15:cjc025_7442"
    INDEX 01 10:32:31
  TRACK 415 AUDIO
    TITLE "15:cjc025_7443"
    INDEX 01 10:34:50
  TRACK 416 AUDIO
    TITLE "15:cjc025_7444"
    INDEX 01 10:35:43
  TRACK 417 AUDIO
    TITLE "15:cjc025_7445"
    INDEX 01 10:37:42
  TRACK 418 AUDIO
    TITLE "15:cjc025_7446"
    INDEX 01 10:38:40
  TRACK 419 AUDIO
    TITLE "15:cjc025_7447"
    INDEX 01 10:40:33
  TRACK 420 AUDIO
    TITLE "15:cjc025_7448"
    INDEX 01 10:41:52
  TRACK 421 AUDIO
    TITLE "15:cjc025_7449"
    INDEX 01 10:43:17
  TRACK 422 AUDIO
    TITLE "15:cjc025_7450"
    INDEX 01 10:44:19
  TRACK 423 AUDIO
    TITLE "15:cjc025_7451"
    INDEX 01 10:46:18
  TRACK 424 AUDIO
    TITLE "15:cjc025_7452"
    INDEX 01 10:47:17
  TRACK 425 AUDIO
    TITLE "15:cjc025_7453"
    INDEX 01 10:48:66
  TRACK 426 AUDIO
    TITLE "15:cjc025_7454"
    INDEX 01 10:49:71
  TRACK 427 AUDIO
    TITLE "15:cjc025_7455"
    INDEX 01 10:52:44
  TRACK 428 AUDIO
    TITLE "15:cjc025_7456"
    INDEX 01 10:53:55
  TRACK 429 AUDIO
    TITLE "15:cjc025_7457"
    INDEX 01 10:55:64
  TRACK 430 AUDIO
    TITLE "15:cjc025_7458"
    INDEX 01 10:56:73
  TRACK 431 AUDIO
    TITLE "15:cjc025_7459"
    INDEX 01 10:59:03
  TRACK 432 AUDIO
    TITLE "15:cjc025_7460"
    INDEX 01 11:00:00
  TRACK 433 AUDIO
    TITLE "15:cjc025_7461"
    INDEX 01 11:01:57
  TRACK 434 AUDIO
    TITLE "15:cjc025_7462"
    INDEX 01 11:02:62
  TRACK 435 AUDIO
    TITLE "15:cjc025_7463"
    INDEX 01 11:04:31
  TRACK 436 AUDIO
    TITLE "15:cjc025_7464"
    INDEX 01 11:05:19
  TRACK 437 AUDIO
    TITLE "15:cjc025_7465"
    INDEX 01 11:06:58
  TRACK 438 AUDIO
    TITLE "15:cjc025_7466"
    INDEX 01 11:07:55
  TRACK 439 AUDIO
    TITLE "15:cjc025_7467"
    INDEX 01 11:09:56
  TRACK 440 AUDIO
    TITLE "15:cjc025_7468"
    INDEX 01 11:10:52
  TRACK 441 AUDIO
    TITLE "15:cjc025_7469"
    INDEX 01 11:12:29
  TRACK 442 AUDIO
    TITLE "15:cjc025_7470"
    INDEX 01 11:13:32
  TRACK 443 AUDIO
    TITLE "15:cjc025_7471"
    INDEX 01 11:15:41
  TRACK 444 AUDIO
    TITLE "15:cjc025_7472"
    INDEX 01 11:16:35
  TRACK 445 AUDIO
    TITLE "15:cjc025_7473"
    INDEX 01 11:18:57
  TRACK 446 AUDIO
    TITLE "15:cjc025_7474"
    INDEX 01 11:19:56
  TRACK 447 AUDIO
    TITLE "15:cjc025_7475"
    INDEX 01 11:21:55
  TRACK 448 AUDIO
    TITLE "15:cjc025_7476"
    INDEX 01 11:22:61
  TRACK 449 AUDIO
    TITLE "15:cjc025_7477"
    INDEX 01 11:24:69
  TRACK 450 AUDIO
    TITLE "15:cjc025_7478"
    INDEX 01 11:25:63
  TRACK 451 AUDIO
    TITLE "15:cjc025_7479"
    INDEX 01 11:27:64
  TRACK 452 AUDIO
    TITLE "15:cjc025_7480"
    INDEX 01 11:28:63
  TRACK 453 AUDIO
    TITLE "15:cjc025_7481"
    INDEX 01 11:31:40
  TRACK 454 AUDIO
    TITLE "15:cjc025_7482"
    INDEX 01 11:32:49
  TRACK 455 AUDIO
    TITLE "15:cjc025_7483"
    INDEX 01 11:34:40
  TRACK 456 AUDIO
    TITLE "15:cjc025_7484"
    INDEX 01 11:35:30
  TRACK 457 AUDIO
    TITLE "15:cjc025_7485"
    INDEX 01 11:37:15
  TRACK 458 AUDIO
    TITLE "15:cjc025_7486"
    INDEX 01 11:38:09
  TRACK 459 AUDIO
    TITLE "0:"
    INDEX 01 11:39:49
